<?xml version="1.0" encoding="utf-8" standalone="no"?>
<!DOCTYPE svg PUBLIC "-//W3C//DTD SVG 1.1//EN"
  "http://www.w3.org/Graphics/SVG/1.1/DTD/svg11.dtd">
<svg xmlns:xlink="http://www.w3.org/1999/xlink" width="720pt" height="216pt" viewBox="0 0 720 216" xmlns="http://www.w3.org/2000/svg" version="1.1">
 <metadata>
  <rdf:RDF xmlns:dc="http://purl.org/dc/elements/1.1/" xmlns:cc="http://creativecommons.org/ns#" xmlns:rdf="http://www.w3.org/1999/02/22-rdf-syntax-ns#">
   <cc:Work>
    <dc:type rdf:resource="http://purl.org/dc/dcmitype/StillImage"/>
    <dc:date>2023-03-07T07:45:57.836941</dc:date>
    <dc:format>image/svg+xml</dc:format>
    <dc:creator>
     <cc:Agent>
      <dc:title>Matplotlib v3.5.0, https://matplotlib.org/</dc:title>
     </cc:Agent>
    </dc:creator>
   </cc:Work>
  </rdf:RDF>
 </metadata>
 <defs>
  <style type="text/css">*{stroke-linejoin: round; stroke-linecap: butt}</style>
 </defs>
 <g id="figure_1">
  <g id="patch_1">
   <path d="M 0 216 
L 720 216 
L 720 0 
L 0 0 
L 0 216 
z
" style="fill: none"/>
  </g>
  <g id="axes_1">
   <g id="line2d_1">
    <path d="M 32.727273 206.132415 
L 34.037674 205.989012 
L 34.692875 188.293911 
L 35.348075 206.18156 
L 36.003276 205.682772 
L 36.658477 206.179862 
L 37.968878 206.005474 
L 38.624079 206.121614 
L 39.279279 206.048539 
L 39.93448 206.180622 
L 41.244881 206.119765 
L 41.900082 195.935283 
L 42.555283 206.171373 
L 44.520885 205.997705 
L 45.176085 206.145596 
L 45.831286 206.168303 
L 46.486486 206.078323 
L 48.452088 206.168303 
L 49.107289 206.095284 
L 49.76249 205.75468 
L 50.41769 206.046933 
L 51.728092 206.129351 
L 52.383292 206.133355 
L 53.038493 206.01882 
L 53.693694 205.357491 
L 54.348894 202.437528 
L 55.004095 205.337225 
L 55.659296 206.112394 
L 56.314496 206.128269 
L 56.969697 206.008241 
L 58.935299 206.069093 
L 59.5905 205.57923 
L 60.2457 206.012802 
L 62.211302 206.137416 
L 64.176904 206.140941 
L 64.832105 206.007396 
L 65.487305 206.179926 
L 66.142506 205.608749 
L 66.797707 206.029108 
L 68.108108 205.817084 
L 68.763309 206.10355 
L 69.418509 202.461 
L 70.07371 205.962289 
L 70.728911 205.632884 
L 71.384111 206.08026 
L 72.039312 206.051369 
L 72.694513 205.736713 
L 74.004914 206.166005 
L 74.660115 206.15744 
L 75.315315 205.227195 
L 75.970516 205.967886 
L 77.280917 206.180189 
L 77.936118 206.172773 
L 78.591319 205.889688 
L 79.246519 205.957023 
L 79.90172 206.179292 
L 81.212121 205.919068 
L 81.867322 206.144757 
L 83.177723 206.177927 
L 83.832924 205.736713 
L 84.488124 206.073149 
L 85.798526 206.117914 
L 86.453726 205.394482 
L 87.108927 206.01882 
L 87.764128 206.177537 
L 89.72973 206.122857 
L 91.040131 205.95284 
L 91.695332 201.308861 
L 92.350532 205.331577 
L 93.005733 205.91526 
L 93.660934 206.173909 
L 94.971335 206.081579 
L 96.281736 205.984329 
L 97.592138 205.944675 
L 98.247338 206.096895 
L 98.902539 206.092975 
L 99.55774 205.316037 
L 100.21294 205.654527 
L 100.868141 205.630172 
L 101.523342 205.992496 
L 102.178542 206.172776 
L 103.488943 206.008079 
L 104.144144 203.145054 
L 104.799345 206.140463 
L 106.764947 206.075403 
L 108.730549 206.166005 
L 109.385749 205.843028 
L 110.04095 206.151298 
L 111.351351 206.11233 
L 112.661753 206.103787 
L 113.316953 195.935283 
L 113.972154 205.127375 
L 114.627355 206.022019 
L 115.282555 206.166469 
L 115.937756 206.134866 
L 116.592957 205.961299 
L 118.558559 206.135222 
L 119.213759 205.543194 
L 119.86896 206.127499 
L 120.524161 205.996131 
L 121.179361 206.177861 
L 122.489762 206.160956 
L 123.144963 204.673581 
L 123.800164 206.085571 
L 125.110565 206.10491 
L 125.765766 206.136328 
L 126.420966 202.461 
L 127.076167 205.997007 
L 127.731368 206.148803 
L 128.386568 205.995184 
L 129.041769 206.016609 
L 129.69697 206.151098 
L 130.35217 205.89743 
L 131.007371 206.0818 
L 131.662572 206.082249 
L 132.317772 205.258489 
L 132.972973 205.87217 
L 133.628174 206.165123 
L 134.283374 205.331577 
L 134.938575 205.944175 
L 135.593776 205.668292 
L 136.248976 206.094444 
L 136.904177 205.935128 
L 137.559378 206.127834 
L 138.214578 206.180053 
L 138.869779 205.729085 
L 139.52498 206.172063 
L 140.18018 205.967521 
L 140.835381 206.107164 
L 141.490581 206.039487 
L 142.145782 206.119765 
L 142.800983 205.789554 
L 143.456183 206.157077 
L 144.111384 206.087323 
L 145.421785 206.111858 
L 151.318591 206.096839 
L 151.973792 202.916625 
L 152.628993 206.039234 
L 153.939394 206.149591 
L 154.594595 206.073119 
L 155.249795 206.170117 
L 157.215397 206.006767 
L 157.870598 206.085571 
L 158.525799 202.461 
L 159.180999 206.060038 
L 159.8362 206.176573 
L 160.4914 206.072192 
L 161.146601 206.142167 
L 161.801802 205.871009 
L 162.457002 206.038474 
L 168.353808 205.935229 
L 169.009009 206.124926 
L 169.66421 206.172558 
L 170.31941 205.625646 
L 170.974611 205.989012 
L 171.629812 205.896268 
L 172.285012 206.137126 
L 172.940213 206.124926 
L 173.595414 205.526436 
L 174.250614 205.357491 
L 175.561016 206.127364 
L 177.526618 206.048539 
L 178.181818 206.050553 
L 178.837019 205.8102 
L 179.492219 206.068661 
L 180.14742 206.172539 
L 184.078624 206.111858 
L 184.733825 205.853872 
L 185.389025 206.086798 
L 186.044226 206.177286 
L 186.699427 205.995184 
L 187.354627 206.165982 
L 189.320229 206.173305 
L 189.97543 205.635989 
L 190.630631 206.166005 
L 191.285831 206.109821 
L 191.941032 205.127375 
L 192.596233 205.919068 
L 193.906634 206.053784 
L 194.561835 206.016609 
L 195.872236 206.159823 
L 196.527437 205.736713 
L 198.493038 206.180622 
L 199.148239 205.582295 
L 199.80344 206.032135 
L 200.45864 206.057578 
L 201.113841 205.363347 
L 201.769042 206.072192 
L 203.734644 206.163733 
L 204.389844 205.967521 
L 205.045045 206.16184 
L 206.355446 206.071185 
L 207.010647 206.027398 
L 207.665848 205.624397 
L 208.321048 205.70821 
L 208.976249 206.109821 
L 209.63145 206.016609 
L 210.28665 206.126195 
L 210.941851 205.681169 
L 211.597052 206.141736 
L 212.907453 205.983654 
L 213.562654 206.139975 
L 214.217854 206.171437 
L 214.873055 205.59474 
L 215.528256 206.138177 
L 216.183456 206.150861 
L 216.838657 205.9944 
L 218.804259 206.160926 
L 219.459459 204.897888 
L 220.11466 206.043976 
L 221.425061 206.136962 
L 224.701065 206.142073 
L 225.356265 205.912146 
L 226.011466 205.941405 
L 226.666667 206.131459 
L 227.321867 206.181818 
L 227.977068 205.89743 
L 228.632269 206.149833 
L 229.287469 205.68556 
L 229.94267 206.067162 
L 230.597871 205.68556 
L 231.253071 204.846504 
L 231.908272 205.28784 
L 232.563473 206.07007 
L 233.218673 206.176023 
L 233.873874 206.081579 
L 234.529075 206.132203 
L 235.184275 206.06922 
L 236.494676 206.150154 
L 237.149877 205.773974 
L 237.805078 205.75515 
L 238.460278 205.962289 
L 239.115479 205.79717 
L 239.77068 206.166005 
L 240.42588 205.940105 
L 241.081081 206.069093 
L 241.736282 205.893663 
L 242.391482 206.150956 
L 243.046683 204.293686 
L 243.701884 205.898344 
L 244.357084 206.07007 
L 245.012285 206.058902 
L 245.667486 206.176506 
L 246.977887 204.846504 
L 247.633088 204.955104 
L 248.288288 206.179292 
L 248.943489 205.984329 
L 249.59869 206.047444 
L 250.25389 205.280944 
L 250.909091 206.168289 
L 251.564292 205.889688 
L 252.219492 206.161375 
L 252.874693 206.01882 
L 253.529894 206.094455 
L 254.185094 205.879035 
L 254.840295 206.143989 
L 255.495495 205.957504 
L 256.805897 206.065163 
L 257.461097 206.03599 
L 258.116298 205.883672 
L 258.771499 206.167037 
L 260.737101 206.168805 
L 261.392301 205.210631 
L 262.047502 206.151154 
L 263.357903 206.085393 
L 264.013104 205.736713 
L 264.668305 206.075403 
L 266.633907 206.092975 
L 267.289107 205.2465 
L 267.944308 206.167916 
L 269.254709 205.608749 
L 269.90991 206.172286 
L 270.565111 205.981196 
L 271.220311 206.145646 
L 271.875512 205.841159 
L 272.530713 201.860592 
L 273.185913 206.083955 
L 273.841114 206.177943 
L 276.461916 206.0004 
L 277.117117 206.144032 
L 277.772318 195.935283 
L 278.427518 206.010384 
L 279.082719 206.156483 
L 279.73792 206.006944 
L 280.39312 206.181585 
L 281.048321 206.004493 
L 282.358722 206.072192 
L 283.013923 205.994794 
L 284.324324 206.177927 
L 284.979525 205.89743 
L 285.634726 205.980033 
L 286.289926 205.786529 
L 286.945127 194.443608 
L 287.600328 205.987695 
L 288.255528 206.094444 
L 289.56593 205.900485 
L 290.22113 206.061228 
L 290.876331 205.608749 
L 291.531532 206.175708 
L 292.186732 205.964375 
L 292.841933 205.897501 
L 293.497133 206.181377 
L 294.152334 204.293686 
L 294.807535 205.546967 
L 295.462735 206.048074 
L 296.117936 205.91526 
L 296.773137 206.078428 
L 297.428337 206.103845 
L 298.083538 205.971851 
L 298.738739 205.389011 
L 299.393939 205.901087 
L 300.704341 206.17978 
L 303.325143 205.836553 
L 303.980344 206.163487 
L 304.635545 206.032451 
L 306.601147 206.179292 
L 307.256347 205.892603 
L 307.911548 205.836553 
L 308.566749 206.160926 
L 309.87715 206.069093 
L 310.532351 188.117013 
L 311.187551 206.13357 
L 311.842752 205.736688 
L 312.497952 206.177925 
L 313.153153 206.074315 
L 313.808354 205.736688 
L 314.463554 199.839992 
L 315.118755 206.121614 
L 315.773956 206.138888 
L 316.429156 205.316037 
L 317.739558 206.085353 
L 318.394758 205.80676 
L 319.70516 206.010384 
L 320.36036 205.167975 
L 321.015561 206.155264 
L 322.981163 206.12692 
L 323.636364 204.770081 
L 324.291564 206.168732 
L 325.601966 206.172558 
L 326.257166 205.261878 
L 326.912367 206.144265 
L 329.53317 206.16234 
L 330.18837 205.648315 
L 331.498771 206.111858 
L 332.153972 205.867883 
L 332.809173 206.105338 
L 333.464373 206.142073 
L 334.119574 205.95928 
L 334.774775 206.150722 
L 336.740377 206.103787 
L 337.395577 205.901087 
L 338.050778 205.48866 
L 338.705979 206.168732 
L 340.671581 206.0818 
L 341.981982 205.2465 
L 342.637183 206.113131 
L 343.947584 206.176892 
L 344.602785 202.437528 
L 345.257985 205.363347 
L 345.913186 206.051887 
L 346.568387 204.918292 
L 347.223587 206.170452 
L 347.878788 205.52775 
L 348.533989 206.176573 
L 349.189189 205.696867 
L 349.84439 202.916625 
L 350.49959 206.113131 
L 352.465192 206.092221 
L 353.775594 205.734793 
L 354.430794 206.051221 
L 356.396396 206.116539 
L 357.051597 205.80676 
L 357.706798 205.917501 
L 358.361998 206.172539 
L 359.6724 205.770248 
L 360.3276 204.357361 
L 360.982801 205.964832 
L 361.638002 206.007755 
L 362.293202 205.914149 
L 363.603604 206.003667 
L 364.914005 205.977444 
L 365.569206 205.445543 
L 366.224406 206.156483 
L 366.879607 205.976895 
L 367.534808 206.068661 
L 368.190008 205.394482 
L 368.845209 205.97923 
L 369.50041 206.180971 
L 371.466011 206.076581 
L 372.121212 205.935128 
L 372.776413 199.839992 
L 373.431613 206.153705 
L 374.742015 206.120841 
L 375.397215 205.953648 
L 376.707617 206.149102 
L 377.362817 206.171427 
L 378.018018 205.929403 
L 379.328419 206.062339 
L 379.98362 205.68556 
L 380.638821 206.166005 
L 381.949222 206.061228 
L 383.259623 205.944675 
L 383.914824 202.916625 
L 384.570025 206.155122 
L 385.880426 206.007344 
L 386.535627 206.173037 
L 387.190827 205.967521 
L 388.501229 206.091475 
L 389.81163 206.142338 
L 390.46683 205.337225 
L 391.122031 206.157857 
L 391.777232 206.075403 
L 392.432432 206.143378 
L 393.087633 205.484551 
L 393.742834 204.405848 
L 394.398034 206.149591 
L 395.053235 205.911385 
L 396.363636 206.152851 
L 397.018837 206.001965 
L 397.674038 206.154987 
L 398.329238 9.818182 
L 398.984439 206.137126 
L 401.605242 205.942498 
L 402.260442 205.546967 
L 402.915643 206.061187 
L 403.570844 205.815812 
L 404.226044 206.058608 
L 407.502048 206.181105 
L 408.157248 206.06922 
L 409.467649 206.145646 
L 410.12285 206.102703 
L 410.778051 206.177407 
L 411.433251 205.68556 
L 412.088452 205.786999 
L 412.743653 206.087439 
L 413.398853 205.630172 
L 414.054054 205.997007 
L 414.709255 206.128269 
L 415.364455 205.944675 
L 416.019656 195.935283 
L 416.674857 206.154425 
L 417.330057 206.058091 
L 417.985258 206.177708 
L 418.640459 206.102703 
L 419.295659 206.168289 
L 419.95086 205.852854 
L 420.606061 206.094455 
L 421.916462 206.126434 
L 422.571663 205.79717 
L 423.226863 206.136328 
L 423.882064 205.912146 
L 424.537265 204.134316 
L 425.192465 205.913479 
L 425.847666 205.83337 
L 426.502867 206.090369 
L 427.158067 206.064807 
L 427.813268 206.179862 
L 430.43407 206.13357 
L 431.744472 206.047988 
L 432.399672 206.154425 
L 433.054873 206.10491 
L 434.365274 206.180622 
L 435.020475 206.057578 
L 435.675676 205.745196 
L 436.330876 206.166241 
L 436.986077 206.177943 
L 437.641278 205.90899 
L 438.951679 206.096983 
L 439.60688 206.147308 
L 440.26208 205.341526 
L 440.917281 205.676387 
L 441.572482 203.358052 
L 442.227682 204.918292 
L 442.882883 206.162502 
L 443.538084 205.733028 
L 444.193284 206.16234 
L 444.848485 205.643761 
L 445.503686 205.917501 
L 448.124488 206.165508 
L 449.434889 206.131681 
L 452.055692 206.143471 
L 453.366093 206.027398 
L 454.021294 206.164511 
L 457.297297 206.048539 
L 457.952498 206.176275 
L 458.607699 205.923103 
L 460.573301 206.119864 
L 461.883702 205.976201 
L 462.538903 206.120328 
L 465.814906 206.172906 
L 466.470106 205.864381 
L 467.780508 206.133245 
L 468.435708 206.06612 
L 469.090909 206.174232 
L 469.74611 205.957504 
L 470.40131 206.040039 
L 471.056511 205.674582 
L 471.711712 206.158278 
L 472.366912 205.89743 
L 473.022113 204.853685 
L 473.677314 205.733028 
L 474.332514 205.8182 
L 474.987715 206.065163 
L 475.642916 206.158707 
L 476.298116 206.043344 
L 477.608518 206.139584 
L 478.263718 206.154268 
L 478.918919 205.980033 
L 479.57412 206.169835 
L 480.22932 206.041277 
L 480.884521 205.484551 
L 481.539722 206.090347 
L 482.194922 205.668229 
L 482.850123 206.158555 
L 483.505324 205.696867 
L 484.160524 206.033939 
L 484.815725 206.149007 
L 488.091728 206.114022 
L 488.746929 205.967956 
L 489.402129 205.654527 
L 490.712531 206.170117 
L 491.367731 205.897655 
L 492.022932 206.081014 
L 492.678133 206.144137 
L 493.988534 205.962289 
L 494.643735 206.131109 
L 495.954136 206.027398 
L 496.609337 206.154987 
L 497.264537 206.092935 
L 498.574939 206.176045 
L 499.230139 205.773974 
L 499.88534 205.606877 
L 500.540541 206.043344 
L 503.161343 206.169835 
L 503.816544 205.674582 
L 504.471744 206.149007 
L 505.126945 206.006491 
L 505.782146 206.149007 
L 506.437346 195.935283 
L 507.092547 206.14347 
L 507.747748 205.883144 
L 508.402948 206.156483 
L 509.058149 206.058118 
L 509.71335 194.443608 
L 510.36855 206.053784 
L 511.678952 206.16477 
L 512.334152 205.922836 
L 513.644554 206.168302 
L 516.265356 206.083933 
L 516.920557 204.396163 
L 517.575758 206.114728 
L 518.230958 206.168361 
L 519.54136 205.668292 
L 520.19656 205.941323 
L 520.851761 205.227195 
L 521.506962 206.179613 
L 522.817363 205.963243 
L 523.472563 205.953648 
L 524.127764 206.103872 
L 525.438165 206.180021 
L 526.093366 205.980368 
L 528.058968 206.165508 
L 528.714169 206.180649 
L 529.369369 205.897655 
L 530.02457 206.073882 
L 530.679771 206.054218 
L 531.334971 205.897501 
L 531.990172 206.125914 
L 532.645373 205.70821 
L 533.300573 206.095864 
L 533.955774 206.096983 
L 534.610975 205.944175 
L 535.266175 206.174915 
L 535.921376 205.765255 
L 536.576577 205.883672 
L 537.231777 206.175159 
L 537.886978 206.092221 
L 539.197379 206.121894 
L 539.85258 206.143471 
L 541.162981 206.037627 
L 541.818182 206.069411 
L 542.473382 205.929403 
L 543.128583 196.238836 
L 543.783784 206.012802 
L 544.438984 206.171897 
L 545.094185 206.149591 
L 545.749386 205.951292 
L 547.059787 206.075403 
L 547.714988 206.160956 
L 548.370188 204.134316 
L 549.025389 205.445543 
L 549.68059 206.177699 
L 550.990991 206.170452 
L 551.646192 205.740823 
L 552.301392 204.293686 
L 552.956593 205.702111 
L 554.266994 206.125376 
L 554.922195 205.8102 
L 555.577396 199.839992 
L 556.232596 205.992496 
L 556.887797 205.921315 
L 557.542998 206.141036 
L 562.784603 206.14008 
L 563.439803 205.2465 
L 564.095004 206.180649 
L 564.750205 206.160984 
L 565.405405 195.935283 
L 566.060606 205.729085 
L 566.715807 205.897655 
L 567.371007 205.702111 
L 568.026208 206.173037 
L 568.681409 206.102761 
L 569.336609 205.864381 
L 569.99181 204.892225 
L 570.647011 206.03922 
L 571.302211 188.117013 
L 571.957412 206.145353 
L 573.267813 206.028041 
L 573.923014 205.446415 
L 574.578215 205.889687 
L 575.233415 206.076581 
L 576.543817 206.165982 
L 577.199017 206.037627 
L 577.854218 206.150861 
L 578.509419 206.125376 
L 579.164619 205.905654 
L 579.81982 206.159252 
L 580.47502 206.163733 
L 581.130221 201.308861 
L 581.785422 206.030404 
L 582.440622 205.526436 
L 583.095823 206.150072 
L 584.406224 206.139849 
L 585.061425 205.729085 
L 585.716626 205.654527 
L 586.371826 205.999653 
L 587.027027 205.882348 
L 587.682228 206.117883 
L 588.337428 205.892603 
L 588.992629 206.029108 
L 589.64783 205.980033 
L 590.30303 206.177925 
L 590.958231 206.091657 
L 591.613432 206.161488 
L 592.268632 205.365888 
L 592.923833 205.815812 
L 593.579034 205.48866 
L 594.889435 206.131086 
L 595.544636 205.404109 
L 596.199836 205.888679 
L 596.855037 205.894762 
L 597.510238 206.165503 
L 598.165438 205.972711 
L 600.786241 206.122371 
L 602.096642 205.907633 
L 602.751843 204.892225 
L 603.407043 206.170117 
L 604.062244 206.077983 
L 604.717445 206.159546 
L 605.372645 205.839223 
L 606.027846 205.985756 
L 606.683047 205.907633 
L 607.338247 206.08026 
L 607.993448 206.058091 
L 608.648649 205.668292 
L 609.303849 205.995019 
L 609.95905 206.17978 
L 610.614251 205.088158 
L 611.269451 206.14666 
L 611.924652 206.0818 
L 613.235053 205.80676 
L 613.890254 206.068661 
L 614.545455 206.100745 
L 615.200655 204.844876 
L 615.855856 195.935283 
L 616.511057 206.164997 
L 617.821458 205.972679 
L 618.476658 206.143471 
L 619.131859 206.019875 
L 619.78706 206.142338 
L 620.44226 205.8182 
L 621.752662 205.83337 
L 622.407862 206.145353 
L 623.063063 206.049987 
L 623.718264 205.839223 
L 624.373464 206.058902 
L 625.028665 205.949937 
L 625.683866 205.018404 
L 626.339066 206.164331 
L 626.994267 205.915148 
L 627.649468 206.049987 
L 628.304668 205.708623 
L 628.959869 206.172776 
L 629.61507 205.930781 
L 630.27027 206.162502 
L 631.580672 205.871084 
L 632.235872 206.117883 
L 633.546274 205.624397 
L 634.201474 206.167888 
L 634.856675 205.406365 
L 635.511876 206.057811 
L 636.167076 205.210631 
L 636.822277 206.165239 
L 637.477477 206.162382 
L 638.132678 205.976895 
L 638.787879 206.146088 
L 639.443079 206.110535 
L 640.09828 205.375193 
L 641.408681 206.123901 
L 644.029484 206.048539 
L 644.684685 206.168844 
L 645.339885 206.125914 
L 645.995086 199.839992 
L 646.650287 205.826939 
L 647.305487 205.445543 
L 647.960688 206.160045 
L 648.615889 205.812554 
L 649.271089 206.125914 
L 649.92629 206.156483 
L 651.236691 205.972711 
L 651.891892 206.1193 
L 652.547093 205.363347 
L 653.202293 205.915148 
L 653.857494 206.126982 
L 654.512695 205.972711 
L 655.167895 206.148538 
L 655.823096 206.006767 
L 656.478296 206.091719 
L 657.133497 205.261878 
L 658.443898 206.028393 
L 659.7543 206.129289 
L 660.4095 206.054218 
L 661.064701 206.178013 
L 664.340704 206.172063 
L 664.995905 205.89743 
L 665.651106 206.1193 
L 670.23751 206.110471 
L 670.892711 205.258489 
L 671.547912 205.951292 
L 672.203112 206.159546 
L 672.858313 206.148972 
L 673.513514 205.957504 
L 674.823915 206.156111 
L 675.479115 203.145054 
L 676.134316 205.897501 
L 676.789517 206.152138 
L 677.444717 205.935229 
L 678.099918 206.091475 
L 678.755119 205.854695 
L 679.410319 206.004411 
L 680.06552 205.914149 
L 681.375921 206.134866 
L 682.686323 206.108852 
L 683.341523 204.628174 
L 683.996724 206.072596 
L 684.651925 205.73101 
L 685.307125 206.156111 
L 686.617527 206.10164 
L 687.272727 206.166082 
L 687.272727 206.166082 
" clip-path="url(#pf18f4a795d)" style="fill: none; stroke: #1f77b4; stroke-width: 1.5; stroke-linecap: square"/>
   </g>
   <g id="text_1">
    <!-- Random draws from a Pareto distributed population (α=1.5) -->
    <g transform="translate(179.43375 -6)scale(0.12 -0.12)">
     <defs>
      <path id="DejaVuSans-52" d="M 2841 2188 
Q 3044 2119 3236 1894 
Q 3428 1669 3622 1275 
L 4263 0 
L 3584 0 
L 2988 1197 
Q 2756 1666 2539 1819 
Q 2322 1972 1947 1972 
L 1259 1972 
L 1259 0 
L 628 0 
L 628 4666 
L 2053 4666 
Q 2853 4666 3247 4331 
Q 3641 3997 3641 3322 
Q 3641 2881 3436 2590 
Q 3231 2300 2841 2188 
z
M 1259 4147 
L 1259 2491 
L 2053 2491 
Q 2509 2491 2742 2702 
Q 2975 2913 2975 3322 
Q 2975 3731 2742 3939 
Q 2509 4147 2053 4147 
L 1259 4147 
z
" transform="scale(0.015625)"/>
      <path id="DejaVuSans-61" d="M 2194 1759 
Q 1497 1759 1228 1600 
Q 959 1441 959 1056 
Q 959 750 1161 570 
Q 1363 391 1709 391 
Q 2188 391 2477 730 
Q 2766 1069 2766 1631 
L 2766 1759 
L 2194 1759 
z
M 3341 1997 
L 3341 0 
L 2766 0 
L 2766 531 
Q 2569 213 2275 61 
Q 1981 -91 1556 -91 
Q 1019 -91 701 211 
Q 384 513 384 1019 
Q 384 1609 779 1909 
Q 1175 2209 1959 2209 
L 2766 2209 
L 2766 2266 
Q 2766 2663 2505 2880 
Q 2244 3097 1772 3097 
Q 1472 3097 1187 3025 
Q 903 2953 641 2809 
L 641 3341 
Q 956 3463 1253 3523 
Q 1550 3584 1831 3584 
Q 2591 3584 2966 3190 
Q 3341 2797 3341 1997 
z
" transform="scale(0.015625)"/>
      <path id="DejaVuSans-6e" d="M 3513 2113 
L 3513 0 
L 2938 0 
L 2938 2094 
Q 2938 2591 2744 2837 
Q 2550 3084 2163 3084 
Q 1697 3084 1428 2787 
Q 1159 2491 1159 1978 
L 1159 0 
L 581 0 
L 581 3500 
L 1159 3500 
L 1159 2956 
Q 1366 3272 1645 3428 
Q 1925 3584 2291 3584 
Q 2894 3584 3203 3211 
Q 3513 2838 3513 2113 
z
" transform="scale(0.015625)"/>
      <path id="DejaVuSans-64" d="M 2906 2969 
L 2906 4863 
L 3481 4863 
L 3481 0 
L 2906 0 
L 2906 525 
Q 2725 213 2448 61 
Q 2172 -91 1784 -91 
Q 1150 -91 751 415 
Q 353 922 353 1747 
Q 353 2572 751 3078 
Q 1150 3584 1784 3584 
Q 2172 3584 2448 3432 
Q 2725 3281 2906 2969 
z
M 947 1747 
Q 947 1113 1208 752 
Q 1469 391 1925 391 
Q 2381 391 2643 752 
Q 2906 1113 2906 1747 
Q 2906 2381 2643 2742 
Q 2381 3103 1925 3103 
Q 1469 3103 1208 2742 
Q 947 2381 947 1747 
z
" transform="scale(0.015625)"/>
      <path id="DejaVuSans-6f" d="M 1959 3097 
Q 1497 3097 1228 2736 
Q 959 2375 959 1747 
Q 959 1119 1226 758 
Q 1494 397 1959 397 
Q 2419 397 2687 759 
Q 2956 1122 2956 1747 
Q 2956 2369 2687 2733 
Q 2419 3097 1959 3097 
z
M 1959 3584 
Q 2709 3584 3137 3096 
Q 3566 2609 3566 1747 
Q 3566 888 3137 398 
Q 2709 -91 1959 -91 
Q 1206 -91 779 398 
Q 353 888 353 1747 
Q 353 2609 779 3096 
Q 1206 3584 1959 3584 
z
" transform="scale(0.015625)"/>
      <path id="DejaVuSans-6d" d="M 3328 2828 
Q 3544 3216 3844 3400 
Q 4144 3584 4550 3584 
Q 5097 3584 5394 3201 
Q 5691 2819 5691 2113 
L 5691 0 
L 5113 0 
L 5113 2094 
Q 5113 2597 4934 2840 
Q 4756 3084 4391 3084 
Q 3944 3084 3684 2787 
Q 3425 2491 3425 1978 
L 3425 0 
L 2847 0 
L 2847 2094 
Q 2847 2600 2669 2842 
Q 2491 3084 2119 3084 
Q 1678 3084 1418 2786 
Q 1159 2488 1159 1978 
L 1159 0 
L 581 0 
L 581 3500 
L 1159 3500 
L 1159 2956 
Q 1356 3278 1631 3431 
Q 1906 3584 2284 3584 
Q 2666 3584 2933 3390 
Q 3200 3197 3328 2828 
z
" transform="scale(0.015625)"/>
      <path id="DejaVuSans-20" transform="scale(0.015625)"/>
      <path id="DejaVuSans-72" d="M 2631 2963 
Q 2534 3019 2420 3045 
Q 2306 3072 2169 3072 
Q 1681 3072 1420 2755 
Q 1159 2438 1159 1844 
L 1159 0 
L 581 0 
L 581 3500 
L 1159 3500 
L 1159 2956 
Q 1341 3275 1631 3429 
Q 1922 3584 2338 3584 
Q 2397 3584 2469 3576 
Q 2541 3569 2628 3553 
L 2631 2963 
z
" transform="scale(0.015625)"/>
      <path id="DejaVuSans-77" d="M 269 3500 
L 844 3500 
L 1563 769 
L 2278 3500 
L 2956 3500 
L 3675 769 
L 4391 3500 
L 4966 3500 
L 4050 0 
L 3372 0 
L 2619 2869 
L 1863 0 
L 1184 0 
L 269 3500 
z
" transform="scale(0.015625)"/>
      <path id="DejaVuSans-73" d="M 2834 3397 
L 2834 2853 
Q 2591 2978 2328 3040 
Q 2066 3103 1784 3103 
Q 1356 3103 1142 2972 
Q 928 2841 928 2578 
Q 928 2378 1081 2264 
Q 1234 2150 1697 2047 
L 1894 2003 
Q 2506 1872 2764 1633 
Q 3022 1394 3022 966 
Q 3022 478 2636 193 
Q 2250 -91 1575 -91 
Q 1294 -91 989 -36 
Q 684 19 347 128 
L 347 722 
Q 666 556 975 473 
Q 1284 391 1588 391 
Q 1994 391 2212 530 
Q 2431 669 2431 922 
Q 2431 1156 2273 1281 
Q 2116 1406 1581 1522 
L 1381 1569 
Q 847 1681 609 1914 
Q 372 2147 372 2553 
Q 372 3047 722 3315 
Q 1072 3584 1716 3584 
Q 2034 3584 2315 3537 
Q 2597 3491 2834 3397 
z
" transform="scale(0.015625)"/>
      <path id="DejaVuSans-66" d="M 2375 4863 
L 2375 4384 
L 1825 4384 
Q 1516 4384 1395 4259 
Q 1275 4134 1275 3809 
L 1275 3500 
L 2222 3500 
L 2222 3053 
L 1275 3053 
L 1275 0 
L 697 0 
L 697 3053 
L 147 3053 
L 147 3500 
L 697 3500 
L 697 3744 
Q 697 4328 969 4595 
Q 1241 4863 1831 4863 
L 2375 4863 
z
" transform="scale(0.015625)"/>
      <path id="DejaVuSans-50" d="M 1259 4147 
L 1259 2394 
L 2053 2394 
Q 2494 2394 2734 2622 
Q 2975 2850 2975 3272 
Q 2975 3691 2734 3919 
Q 2494 4147 2053 4147 
L 1259 4147 
z
M 628 4666 
L 2053 4666 
Q 2838 4666 3239 4311 
Q 3641 3956 3641 3272 
Q 3641 2581 3239 2228 
Q 2838 1875 2053 1875 
L 1259 1875 
L 1259 0 
L 628 0 
L 628 4666 
z
" transform="scale(0.015625)"/>
      <path id="DejaVuSans-65" d="M 3597 1894 
L 3597 1613 
L 953 1613 
Q 991 1019 1311 708 
Q 1631 397 2203 397 
Q 2534 397 2845 478 
Q 3156 559 3463 722 
L 3463 178 
Q 3153 47 2828 -22 
Q 2503 -91 2169 -91 
Q 1331 -91 842 396 
Q 353 884 353 1716 
Q 353 2575 817 3079 
Q 1281 3584 2069 3584 
Q 2775 3584 3186 3129 
Q 3597 2675 3597 1894 
z
M 3022 2063 
Q 3016 2534 2758 2815 
Q 2500 3097 2075 3097 
Q 1594 3097 1305 2825 
Q 1016 2553 972 2059 
L 3022 2063 
z
" transform="scale(0.015625)"/>
      <path id="DejaVuSans-74" d="M 1172 4494 
L 1172 3500 
L 2356 3500 
L 2356 3053 
L 1172 3053 
L 1172 1153 
Q 1172 725 1289 603 
Q 1406 481 1766 481 
L 2356 481 
L 2356 0 
L 1766 0 
Q 1100 0 847 248 
Q 594 497 594 1153 
L 594 3053 
L 172 3053 
L 172 3500 
L 594 3500 
L 594 4494 
L 1172 4494 
z
" transform="scale(0.015625)"/>
      <path id="DejaVuSans-69" d="M 603 3500 
L 1178 3500 
L 1178 0 
L 603 0 
L 603 3500 
z
M 603 4863 
L 1178 4863 
L 1178 4134 
L 603 4134 
L 603 4863 
z
" transform="scale(0.015625)"/>
      <path id="DejaVuSans-62" d="M 3116 1747 
Q 3116 2381 2855 2742 
Q 2594 3103 2138 3103 
Q 1681 3103 1420 2742 
Q 1159 2381 1159 1747 
Q 1159 1113 1420 752 
Q 1681 391 2138 391 
Q 2594 391 2855 752 
Q 3116 1113 3116 1747 
z
M 1159 2969 
Q 1341 3281 1617 3432 
Q 1894 3584 2278 3584 
Q 2916 3584 3314 3078 
Q 3713 2572 3713 1747 
Q 3713 922 3314 415 
Q 2916 -91 2278 -91 
Q 1894 -91 1617 61 
Q 1341 213 1159 525 
L 1159 0 
L 581 0 
L 581 4863 
L 1159 4863 
L 1159 2969 
z
" transform="scale(0.015625)"/>
      <path id="DejaVuSans-75" d="M 544 1381 
L 544 3500 
L 1119 3500 
L 1119 1403 
Q 1119 906 1312 657 
Q 1506 409 1894 409 
Q 2359 409 2629 706 
Q 2900 1003 2900 1516 
L 2900 3500 
L 3475 3500 
L 3475 0 
L 2900 0 
L 2900 538 
Q 2691 219 2414 64 
Q 2138 -91 1772 -91 
Q 1169 -91 856 284 
Q 544 659 544 1381 
z
M 1991 3584 
L 1991 3584 
z
" transform="scale(0.015625)"/>
      <path id="DejaVuSans-70" d="M 1159 525 
L 1159 -1331 
L 581 -1331 
L 581 3500 
L 1159 3500 
L 1159 2969 
Q 1341 3281 1617 3432 
Q 1894 3584 2278 3584 
Q 2916 3584 3314 3078 
Q 3713 2572 3713 1747 
Q 3713 922 3314 415 
Q 2916 -91 2278 -91 
Q 1894 -91 1617 61 
Q 1341 213 1159 525 
z
M 3116 1747 
Q 3116 2381 2855 2742 
Q 2594 3103 2138 3103 
Q 1681 3103 1420 2742 
Q 1159 2381 1159 1747 
Q 1159 1113 1420 752 
Q 1681 391 2138 391 
Q 2594 391 2855 752 
Q 3116 1113 3116 1747 
z
" transform="scale(0.015625)"/>
      <path id="DejaVuSans-6c" d="M 603 4863 
L 1178 4863 
L 1178 0 
L 603 0 
L 603 4863 
z
" transform="scale(0.015625)"/>
      <path id="DejaVuSans-28" d="M 1984 4856 
Q 1566 4138 1362 3434 
Q 1159 2731 1159 2009 
Q 1159 1288 1364 580 
Q 1569 -128 1984 -844 
L 1484 -844 
Q 1016 -109 783 600 
Q 550 1309 550 2009 
Q 550 2706 781 3412 
Q 1013 4119 1484 4856 
L 1984 4856 
z
" transform="scale(0.015625)"/>
      <path id="DejaVuSans-3b1" d="M 2644 1628 
L 2506 2350 
Q 2366 3091 1809 3091 
Q 1391 3091 1200 2747 
Q 959 2316 959 1747 
Q 959 1059 1194 731 
Q 1431 397 1809 397 
Q 2228 397 2453 1063 
L 2644 1628 
z
M 2966 2584 
L 3275 3500 
L 3788 3500 
L 3147 1603 
L 3272 919 
Q 3300 766 3409 638 
Q 3538 488 3638 488 
L 3913 488 
L 3913 0 
L 3569 0 
Q 3275 0 3013 263 
Q 2884 394 2831 669 
Q 2688 322 2394 50 
Q 2256 -78 1809 -78 
Q 1075 -78 719 397 
Q 353 888 353 1747 
Q 353 2666 750 3097 
Q 1191 3578 1809 3578 
Q 2781 3578 2966 2584 
z
" transform="scale(0.015625)"/>
      <path id="DejaVuSans-3d" d="M 678 2906 
L 4684 2906 
L 4684 2381 
L 678 2381 
L 678 2906 
z
M 678 1631 
L 4684 1631 
L 4684 1100 
L 678 1100 
L 678 1631 
z
" transform="scale(0.015625)"/>
      <path id="DejaVuSans-31" d="M 794 531 
L 1825 531 
L 1825 4091 
L 703 3866 
L 703 4441 
L 1819 4666 
L 2450 4666 
L 2450 531 
L 3481 531 
L 3481 0 
L 794 0 
L 794 531 
z
" transform="scale(0.015625)"/>
      <path id="DejaVuSans-2e" d="M 684 794 
L 1344 794 
L 1344 0 
L 684 0 
L 684 794 
z
" transform="scale(0.015625)"/>
      <path id="DejaVuSans-35" d="M 691 4666 
L 3169 4666 
L 3169 4134 
L 1269 4134 
L 1269 2991 
Q 1406 3038 1543 3061 
Q 1681 3084 1819 3084 
Q 2600 3084 3056 2656 
Q 3513 2228 3513 1497 
Q 3513 744 3044 326 
Q 2575 -91 1722 -91 
Q 1428 -91 1123 -41 
Q 819 9 494 109 
L 494 744 
Q 775 591 1075 516 
Q 1375 441 1709 441 
Q 2250 441 2565 725 
Q 2881 1009 2881 1497 
Q 2881 1984 2565 2268 
Q 2250 2553 1709 2553 
Q 1456 2553 1204 2497 
Q 953 2441 691 2322 
L 691 4666 
z
" transform="scale(0.015625)"/>
      <path id="DejaVuSans-29" d="M 513 4856 
L 1013 4856 
Q 1481 4119 1714 3412 
Q 1947 2706 1947 2009 
Q 1947 1309 1714 600 
Q 1481 -109 1013 -844 
L 513 -844 
Q 928 -128 1133 580 
Q 1338 1288 1338 2009 
Q 1338 2731 1133 3434 
Q 928 4138 513 4856 
z
" transform="scale(0.015625)"/>
     </defs>
     <use xlink:href="#DejaVuSans-52"/>
     <use xlink:href="#DejaVuSans-61" x="67.232422"/>
     <use xlink:href="#DejaVuSans-6e" x="128.511719"/>
     <use xlink:href="#DejaVuSans-64" x="191.890625"/>
     <use xlink:href="#DejaVuSans-6f" x="255.367188"/>
     <use xlink:href="#DejaVuSans-6d" x="316.548828"/>
     <use xlink:href="#DejaVuSans-20" x="413.960938"/>
     <use xlink:href="#DejaVuSans-64" x="445.748047"/>
     <use xlink:href="#DejaVuSans-72" x="509.224609"/>
     <use xlink:href="#DejaVuSans-61" x="550.337891"/>
     <use xlink:href="#DejaVuSans-77" x="611.617188"/>
     <use xlink:href="#DejaVuSans-73" x="693.404297"/>
     <use xlink:href="#DejaVuSans-20" x="745.503906"/>
     <use xlink:href="#DejaVuSans-66" x="777.291016"/>
     <use xlink:href="#DejaVuSans-72" x="812.496094"/>
     <use xlink:href="#DejaVuSans-6f" x="851.359375"/>
     <use xlink:href="#DejaVuSans-6d" x="912.541016"/>
     <use xlink:href="#DejaVuSans-20" x="1009.953125"/>
     <use xlink:href="#DejaVuSans-61" x="1041.740234"/>
     <use xlink:href="#DejaVuSans-20" x="1103.019531"/>
     <use xlink:href="#DejaVuSans-50" x="1134.806641"/>
     <use xlink:href="#DejaVuSans-61" x="1190.609375"/>
     <use xlink:href="#DejaVuSans-72" x="1251.888672"/>
     <use xlink:href="#DejaVuSans-65" x="1290.751953"/>
     <use xlink:href="#DejaVuSans-74" x="1352.275391"/>
     <use xlink:href="#DejaVuSans-6f" x="1391.484375"/>
     <use xlink:href="#DejaVuSans-20" x="1452.666016"/>
     <use xlink:href="#DejaVuSans-64" x="1484.453125"/>
     <use xlink:href="#DejaVuSans-69" x="1547.929688"/>
     <use xlink:href="#DejaVuSans-73" x="1575.712891"/>
     <use xlink:href="#DejaVuSans-74" x="1627.8125"/>
     <use xlink:href="#DejaVuSans-72" x="1667.021484"/>
     <use xlink:href="#DejaVuSans-69" x="1708.134766"/>
     <use xlink:href="#DejaVuSans-62" x="1735.917969"/>
     <use xlink:href="#DejaVuSans-75" x="1799.394531"/>
     <use xlink:href="#DejaVuSans-74" x="1862.773438"/>
     <use xlink:href="#DejaVuSans-65" x="1901.982422"/>
     <use xlink:href="#DejaVuSans-64" x="1963.505859"/>
     <use xlink:href="#DejaVuSans-20" x="2026.982422"/>
     <use xlink:href="#DejaVuSans-70" x="2058.769531"/>
     <use xlink:href="#DejaVuSans-6f" x="2122.246094"/>
     <use xlink:href="#DejaVuSans-70" x="2183.427734"/>
     <use xlink:href="#DejaVuSans-75" x="2246.904297"/>
     <use xlink:href="#DejaVuSans-6c" x="2310.283203"/>
     <use xlink:href="#DejaVuSans-61" x="2338.066406"/>
     <use xlink:href="#DejaVuSans-74" x="2399.345703"/>
     <use xlink:href="#DejaVuSans-69" x="2438.554688"/>
     <use xlink:href="#DejaVuSans-6f" x="2466.337891"/>
     <use xlink:href="#DejaVuSans-6e" x="2527.519531"/>
     <use xlink:href="#DejaVuSans-20" x="2590.898438"/>
     <use xlink:href="#DejaVuSans-28" x="2622.685547"/>
     <use xlink:href="#DejaVuSans-3b1" x="2661.699219"/>
     <use xlink:href="#DejaVuSans-3d" x="2727.617188"/>
     <use xlink:href="#DejaVuSans-31" x="2811.40625"/>
     <use xlink:href="#DejaVuSans-2e" x="2875.029297"/>
     <use xlink:href="#DejaVuSans-35" x="2906.816406"/>
     <use xlink:href="#DejaVuSans-29" x="2970.439453"/>
    </g>
   </g>
  </g>
 </g>
 <defs>
  <clipPath id="pf18f4a795d">
   <rect x="0" y="0" width="720" height="216"/>
  </clipPath>
 </defs>
</svg>
