<?xml version="1.0" encoding="utf-8" standalone="no"?>
<!DOCTYPE svg PUBLIC "-//W3C//DTD SVG 1.1//EN"
  "http://www.w3.org/Graphics/SVG/1.1/DTD/svg11.dtd">
<svg xmlns:xlink="http://www.w3.org/1999/xlink" width="720pt" height="216pt" viewBox="0 0 720 216" xmlns="http://www.w3.org/2000/svg" version="1.1">
 <metadata>
  <rdf:RDF xmlns:dc="http://purl.org/dc/elements/1.1/" xmlns:cc="http://creativecommons.org/ns#" xmlns:rdf="http://www.w3.org/1999/02/22-rdf-syntax-ns#">
   <cc:Work>
    <dc:type rdf:resource="http://purl.org/dc/dcmitype/StillImage"/>
    <dc:date>2023-03-07T07:45:34.417229</dc:date>
    <dc:format>image/svg+xml</dc:format>
    <dc:creator>
     <cc:Agent>
      <dc:title>Matplotlib v3.5.0, https://matplotlib.org/</dc:title>
     </cc:Agent>
    </dc:creator>
   </cc:Work>
  </rdf:RDF>
 </metadata>
 <defs>
  <style type="text/css">*{stroke-linejoin: round; stroke-linecap: butt}</style>
 </defs>
 <g id="figure_1">
  <g id="patch_1">
   <path d="M 0 216 
L 720 216 
L 720 0 
L 0 0 
L 0 216 
z
" style="fill: none"/>
  </g>
  <g id="axes_1">
   <g id="line2d_1">
    <path d="M 32.727273 128.357953 
L 33.382473 118.225662 
L 34.037674 74.762481 
L 34.692875 111.774752 
L 35.348075 119.775153 
L 36.003276 92.451016 
L 36.658477 83.234098 
L 37.313677 124.957468 
L 37.968878 135.266188 
L 38.624079 153.781531 
L 39.279279 115.964225 
L 39.93448 107.007742 
L 40.589681 107.47668 
L 41.244881 142.49472 
L 41.900082 160.320881 
L 42.555283 73.375817 
L 43.865684 100.185308 
L 44.520885 112.205347 
L 45.176085 70.505293 
L 45.831286 122.788983 
L 46.486486 99.117189 
L 47.141687 65.233138 
L 47.796888 136.934076 
L 48.452088 164.907528 
L 49.107289 136.747456 
L 49.76249 61.091588 
L 50.41769 118.225662 
L 51.072891 120.90792 
L 51.728092 148.840049 
L 52.383292 159.800177 
L 53.038493 119.775153 
L 53.693694 135.072326 
L 54.348894 94.275875 
L 55.004095 118.967308 
L 55.659296 104.838008 
L 56.314496 134.9832 
L 56.969697 79.727294 
L 57.624898 91.932762 
L 58.280098 127.317168 
L 58.935299 142.446209 
L 59.5905 112.917095 
L 60.2457 113.837389 
L 60.900901 112.917095 
L 61.556102 135.266188 
L 62.211302 91.254498 
L 63.521704 134.694494 
L 64.176904 114.388185 
L 64.832105 121.367234 
L 65.487305 100.300297 
L 66.142506 103.092798 
L 66.797707 155.650739 
L 67.452907 113.745602 
L 68.108108 120.38296 
L 68.763309 123.521222 
L 69.418509 81.878907 
L 70.07371 95.004269 
L 70.728911 122.670177 
L 71.384111 95.410745 
L 72.039312 137.892951 
L 72.694513 103.201658 
L 73.349713 94.614662 
L 74.004914 114.910641 
L 74.660115 129.872477 
L 75.315315 98.74948 
L 75.970516 111.264675 
L 76.625717 120.850269 
L 77.280917 128.555888 
L 77.936118 80.191098 
L 78.591319 121.122971 
L 79.246519 123.805033 
L 79.90172 79.727294 
L 80.556921 146.426596 
L 81.212121 104.791788 
L 81.867322 104.226136 
L 82.522523 99.537928 
L 83.177723 167.004413 
L 83.832924 160.320881 
L 84.488124 178.754981 
L 85.143325 140.946004 
L 85.798526 169.464285 
L 86.453726 117.309316 
L 87.764128 85.772081 
L 88.419328 120.871131 
L 89.074529 122.808259 
L 89.72973 163.871537 
L 90.38493 104.120692 
L 91.040131 86.418773 
L 91.695332 78.56531 
L 92.350532 95.907817 
L 93.005733 97.523102 
L 93.660934 125.59664 
L 94.316134 75.766061 
L 94.971335 95.044501 
L 95.626536 161.333756 
L 96.281736 129.012237 
L 96.936937 144.607452 
L 97.592138 108.747076 
L 98.247338 117.467979 
L 98.902539 135.609707 
L 99.55774 81.077906 
L 100.21294 83.002776 
L 100.868141 9.818182 
L 102.178542 144.827346 
L 102.833743 98.588174 
L 103.488943 104.238267 
L 104.144144 80.000828 
L 104.799345 85.959584 
L 105.454545 99.710149 
L 106.109746 61.091588 
L 106.764947 115.981885 
L 107.420147 144.525148 
L 108.075348 185.620428 
L 108.730549 112.228152 
L 109.385749 89.789003 
L 110.04095 127.280513 
L 110.696151 145.991783 
L 111.351351 138.146318 
L 112.006552 146.727908 
L 112.661753 129.190372 
L 113.316953 127.473098 
L 113.972154 134.764427 
L 114.627355 136.72732 
L 115.282555 102.652366 
L 115.937756 131.406502 
L 117.248157 94.443045 
L 117.903358 121.819886 
L 118.558559 63.360309 
L 119.213759 127.169975 
L 119.86896 145.499675 
L 121.179361 107.903782 
L 121.834562 131.487888 
L 122.489762 165.770101 
L 123.144963 142.957361 
L 124.455364 121.819886 
L 125.110565 160.147301 
L 125.765766 104.838008 
L 126.420966 117.576091 
L 127.076167 81.077906 
L 127.731368 123.694501 
L 128.386568 75.813753 
L 129.041769 87.311788 
L 129.69697 123.741682 
L 130.35217 134.9832 
L 131.007371 118.378991 
L 131.662572 95.183631 
L 132.317772 105.638066 
L 132.972973 156.443786 
L 133.628174 106.243738 
L 134.283374 123.078498 
L 134.938575 152.100096 
L 135.593776 114.22925 
L 136.248976 149.540173 
L 136.904177 124.866789 
L 137.559378 152.063783 
L 138.214578 135.057804 
L 138.869779 67.031587 
L 139.52498 124.866789 
L 140.18018 137.208406 
L 140.835381 69.993687 
L 141.490581 127.510433 
L 142.145782 106.570687 
L 142.800983 133.877478 
L 143.456183 130.334003 
L 144.111384 98.588174 
L 144.766585 144.52229 
L 145.421785 80.191098 
L 146.076986 157.448237 
L 146.732187 120.57106 
L 147.387387 132.936989 
L 148.042588 127.473098 
L 148.697789 141.912723 
L 149.352989 166.289218 
L 150.00819 140.635253 
L 150.663391 152.492067 
L 151.318591 91.311838 
L 151.973792 133.393817 
L 152.628993 92.196936 
L 153.284193 92.851806 
L 153.939394 79.727294 
L 154.594595 92.421968 
L 155.249795 115.964225 
L 156.560197 70.505293 
L 157.215397 122.37983 
L 157.870598 148.997213 
L 158.525799 158.846769 
L 159.180999 105.059252 
L 160.4914 142.574234 
L 161.146601 134.096176 
L 161.801802 154.851126 
L 162.457002 105.855319 
L 163.112203 151.082817 
L 163.767404 127.044306 
L 164.422604 91.932762 
L 165.077805 139.352965 
L 165.733006 79.139157 
L 166.388206 103.319129 
L 167.043407 111.196371 
L 167.698608 102.137505 
L 168.353808 60.205544 
L 169.009009 144.52229 
L 169.66421 102.48897 
L 170.31941 127.169975 
L 170.974611 131.528468 
L 171.629812 96.081261 
L 172.285012 118.196881 
L 172.940213 103.201658 
L 173.595414 140.96648 
L 174.250614 108.894624 
L 174.905815 101.923789 
L 175.561016 89.279521 
L 176.216216 119.565129 
L 176.871417 70.184154 
L 177.526618 121.122971 
L 178.181818 126.974759 
L 178.837019 79.910413 
L 179.492219 162.965463 
L 180.14742 105.47004 
L 180.802621 115.981885 
L 181.457821 113.663897 
L 182.113022 104.238267 
L 182.768223 78.56531 
L 183.423423 118.655145 
L 184.078624 134.694494 
L 184.733825 97.906643 
L 185.389025 102.652366 
L 186.044226 104.838008 
L 186.699427 110.969788 
L 187.354627 133.463873 
L 188.009828 129.991914 
L 188.665029 145.555073 
L 189.320229 134.332488 
L 189.97543 105.881333 
L 190.630631 126.217408 
L 191.285831 108.66615 
L 191.941032 124.376598 
L 192.596233 131.576282 
L 193.251433 127.044306 
L 193.906634 90.555006 
L 194.561835 129.890896 
L 195.217035 102.063309 
L 195.872236 159.800177 
L 196.527437 140.96648 
L 197.182637 125.385282 
L 197.837838 125.197943 
L 198.493038 148.003754 
L 199.148239 181.673698 
L 199.80344 128.683066 
L 200.45864 105.859526 
L 201.113841 131.807495 
L 201.769042 98.1711 
L 202.424242 149.478446 
L 203.079443 128.866864 
L 203.734644 157.929466 
L 204.389844 86.53478 
L 205.045045 121.294248 
L 205.700246 113.660605 
L 206.355446 150.882599 
L 207.010647 136.934076 
L 207.665848 147.933044 
L 208.321048 86.433589 
L 208.976249 108.849842 
L 209.63145 160.147301 
L 210.28665 98.479259 
L 210.941851 69.238394 
L 211.597052 146.118281 
L 212.252252 111.562394 
L 212.907453 39.09152 
L 213.562654 120.57106 
L 214.217854 109.591303 
L 214.873055 144.579003 
L 215.528256 151.041252 
L 216.183456 114.818075 
L 216.838657 137.145449 
L 217.493857 119.775153 
L 218.149058 128.683066 
L 218.804259 98.74948 
L 219.459459 97.022266 
L 220.11466 137.573351 
L 220.769861 123.607785 
L 221.425061 119.775153 
L 222.080262 165.926902 
L 222.735463 163.871537 
L 224.045864 124.764697 
L 224.701065 83.935979 
L 225.356265 109.103815 
L 226.011466 120.11614 
L 227.321867 108.894624 
L 227.977068 85.573278 
L 228.632269 106.884799 
L 229.287469 105.614249 
L 229.94267 129.453331 
L 230.597871 113.745602 
L 231.253071 73.321915 
L 231.908272 114.054354 
L 232.563473 141.833106 
L 233.218673 142.49472 
L 233.873874 68.142378 
L 234.529075 61.248588 
L 235.184275 140.551848 
L 235.839476 123.566108 
L 236.494676 92.451016 
L 237.149877 83.492532 
L 237.805078 154.468709 
L 238.460278 136.192231 
L 239.115479 151.664647 
L 239.77068 111.399106 
L 240.42588 107.007742 
L 241.081081 155.455951 
L 241.736282 102.322285 
L 242.391482 145.32159 
L 243.046683 97.715947 
L 244.357084 160.499606 
L 245.012285 142.866296 
L 245.667486 129.991914 
L 246.322686 109.09836 
L 246.977887 113.165762 
L 247.633088 157.929466 
L 248.288288 75.813753 
L 248.943489 131.341357 
L 250.25389 103.956529 
L 250.909091 131.949862 
L 251.564292 117.235177 
L 252.219492 87.311788 
L 252.874693 84.726976 
L 253.529894 156.966336 
L 254.185094 127.039733 
L 254.840295 61.617322 
L 255.495495 164.594542 
L 256.150696 146.07591 
L 256.805897 83.002776 
L 257.461097 175.848099 
L 258.116298 154.234524 
L 258.771499 92.163212 
L 259.426699 168.048791 
L 260.0819 56.164699 
L 260.737101 164.594542 
L 261.392301 110.182999 
L 262.047502 140.635253 
L 262.702703 87.962842 
L 263.357903 98.358643 
L 264.013104 159.630569 
L 264.668305 126.769481 
L 265.323505 144.698296 
L 265.978706 133.769758 
L 266.633907 117.840403 
L 267.289107 114.210885 
L 267.944308 67.599257 
L 268.599509 106.696294 
L 269.254709 96.910127 
L 269.90991 127.280513 
L 270.565111 123.741682 
L 271.220311 129.190372 
L 271.875512 128.866864 
L 272.530713 109.251868 
L 273.185913 150.434716 
L 273.841114 96.977762 
L 274.496314 87.046432 
L 275.151515 82.183964 
L 275.806716 126.085475 
L 276.461916 145.82514 
L 277.117117 131.949862 
L 277.772318 123.553835 
L 278.427518 152.152662 
L 279.082719 144.490105 
L 279.73792 138.763217 
L 280.39312 117.467979 
L 281.048321 140.880013 
L 282.358722 53.337881 
L 283.013923 150.561411 
L 284.324324 105.144223 
L 284.979525 136.414769 
L 285.634726 181.041678 
L 286.289926 155.650739 
L 286.945127 112.751691 
L 287.600328 103.196492 
L 288.255528 154.851126 
L 288.910729 150.595606 
L 289.56593 133.877478 
L 290.876331 133.71337 
L 291.531532 79.585948 
L 292.186732 106.337795 
L 293.497133 100.185308 
L 294.152334 79.83351 
L 294.807535 70.597042 
L 295.462735 94.742238 
L 296.117936 206.181818 
L 296.773137 132.899416 
L 297.428337 114.388185 
L 298.083538 78.69947 
L 298.738739 137.073703 
L 299.393939 96.977762 
L 300.04914 114.210885 
L 300.704341 154.420524 
L 301.359541 129.633257 
L 302.014742 162.965463 
L 302.669943 60.081056 
L 303.325143 83.131393 
L 303.980344 131.22069 
L 304.635545 113.663897 
L 305.290745 142.399045 
L 305.945946 134.9832 
L 306.601147 130.055607 
L 307.256347 116.631507 
L 307.911548 124.276804 
L 308.566749 147.878405 
L 309.221949 60.442616 
L 309.87715 118.611948 
L 310.532351 83.002776 
L 311.187551 112.667494 
L 311.842752 122.563643 
L 312.497952 90.555006 
L 313.153153 138.032112 
L 313.808354 84.479726 
L 314.463554 146.302938 
L 315.118755 173.828419 
L 315.773956 107.696944 
L 316.429156 90.561443 
L 317.084357 47.398563 
L 317.739558 131.492716 
L 318.394758 137.145449 
L 319.049959 81.878907 
L 319.70516 79.910413 
L 320.36036 115.378111 
L 321.015561 133.690788 
L 321.670762 130.492129 
L 322.325962 78.69947 
L 322.981163 120.478039 
L 323.636364 112.474594 
L 324.291564 82.957494 
L 324.946765 115.431317 
L 325.601966 106.696294 
L 326.257166 99.537928 
L 326.912367 111.196371 
L 327.567568 125.385282 
L 328.222768 77.361608 
L 328.877969 109.125333 
L 329.53317 201.792283 
L 330.18837 93.413526 
L 330.843571 187.639904 
L 331.498771 65.756183 
L 332.153972 116.874869 
L 332.809173 178.343443 
L 333.464373 129.86373 
L 334.119574 133.877478 
L 334.774775 112.751691 
L 335.429975 125.436095 
L 336.085176 86.433589 
L 336.740377 142.033855 
L 337.395577 120.57106 
L 338.050778 77.835335 
L 338.705979 131.949862 
L 340.01638 110.235108 
L 340.671581 148.840049 
L 341.326781 106.337795 
L 341.981982 121.294248 
L 342.637183 139.553069 
L 343.292383 123.8584 
L 343.947584 133.260991 
L 344.602785 118.729541 
L 345.257985 118.655145 
L 345.913186 151.609141 
L 346.568387 102.137505 
L 347.223587 145.34106 
L 347.878788 148.464483 
L 348.533989 70.184154 
L 349.189189 137.289654 
L 349.84439 127.206131 
L 350.49959 140.701128 
L 351.154791 103.956529 
L 351.809992 106.932782 
L 352.465192 109.103815 
L 353.120393 106.421612 
L 353.775594 118.225662 
L 354.430794 106.696294 
L 355.085995 157.929466 
L 355.741196 99.562971 
L 356.396396 86.615288 
L 357.051597 95.062367 
L 357.706798 95.004269 
L 358.361998 113.660605 
L 359.017199 148.562466 
L 359.6724 160.591457 
L 360.3276 103.016515 
L 360.982801 118.668058 
L 361.638002 128.472194 
L 362.293202 91.497554 
L 362.948403 113.660605 
L 363.603604 79.585948 
L 364.258804 134.295592 
L 364.914005 121.789331 
L 365.569206 104.072602 
L 366.224406 113.593803 
L 366.879607 112.474594 
L 367.534808 83.131393 
L 368.190008 100.300297 
L 368.845209 156.024705 
L 369.50041 115.072942 
L 370.15561 81.878907 
L 370.810811 182.882654 
L 371.466011 68.142378 
L 372.121212 79.727294 
L 372.776413 129.970691 
L 373.431613 124.957468 
L 374.086814 125.197943 
L 374.742015 117.131915 
L 375.397215 154.110965 
L 376.052416 142.379411 
L 376.707617 115.228834 
L 377.362817 155.650739 
L 378.018018 121.819886 
L 378.673219 152.679232 
L 379.98362 56.164699 
L 380.638821 131.528468 
L 381.294021 108.747076 
L 381.949222 123.805033 
L 382.604423 111.72824 
L 383.259623 133.488659 
L 383.914824 163.871537 
L 384.570025 133.260991 
L 385.225225 117.131915 
L 385.880426 90.030462 
L 386.535627 86.418773 
L 387.190827 123.326034 
L 387.846028 132.379504 
L 388.501229 80.191098 
L 389.81163 123.567487 
L 390.46683 125.59664 
L 391.122031 53.337881 
L 392.432432 169.82633 
L 393.087633 148.003754 
L 393.742834 87.270946 
L 394.398034 107.618973 
L 395.053235 80.136218 
L 396.363636 145.566125 
L 397.018837 124.866789 
L 397.674038 177.689379 
L 398.329238 134.577913 
L 398.984439 131.22069 
L 399.63964 94.961363 
L 400.29484 149.540173 
L 400.950041 126.217408 
L 401.605242 137.385308 
L 402.260442 67.599257 
L 402.915643 119.01462 
L 403.570844 130.492129 
L 404.226044 108.65325 
L 404.881245 135.298043 
L 405.536446 156.181771 
L 406.191646 112.205347 
L 406.846847 125.719688 
L 407.502048 94.751245 
L 408.157248 75.370188 
L 408.812449 99.562971 
L 409.467649 155.455951 
L 410.12285 148.840049 
L 410.778051 145.310258 
L 411.433251 133.382358 
L 412.088452 140.476225 
L 412.743653 98.74948 
L 413.398853 134.391713 
L 414.054054 105.614249 
L 414.709255 117.935597 
L 415.364455 138.395259 
L 416.019656 143.221669 
L 416.674857 152.063783 
L 417.330057 121.210655 
L 417.985258 103.737806 
L 418.640459 101.781939 
L 419.295659 42.125799 
L 419.95086 116.113175 
L 420.606061 155.149091 
L 421.261261 110.612405 
L 421.916462 128.009171 
L 422.571663 135.927424 
L 423.226863 127.332221 
L 423.882064 96.977762 
L 424.537265 155.518405 
L 425.192465 61.248588 
L 425.847666 122.983879 
L 426.502867 134.694494 
L 427.158067 70.505293 
L 427.813268 146.302938 
L 428.468468 95.004269 
L 429.123669 145.378039 
L 429.77887 185.620428 
L 430.43407 120.871131 
L 431.744472 178.343443 
L 432.399672 172.309153 
L 433.054873 95.950131 
L 433.710074 103.092798 
L 434.365274 126.373752 
L 435.020475 84.923971 
L 435.675676 116.503385 
L 436.330876 80.136218 
L 436.986077 127.656893 
L 437.641278 130.330068 
L 438.951679 92.851806 
L 439.60688 113.740133 
L 440.26208 118.761779 
L 440.917281 89.279521 
L 441.572482 88.740462 
L 442.227682 114.054354 
L 442.882883 107.007742 
L 443.538084 185.620428 
L 444.193284 116.253786 
L 444.848485 123.549328 
L 445.503686 119.501716 
L 446.158886 79.83351 
L 446.814087 152.679232 
L 447.469287 156.969081 
L 448.124488 112.184222 
L 448.779689 157.656045 
L 449.434889 126.717463 
L 450.09009 118.666198 
L 450.745291 106.348772 
L 451.400491 60.442616 
L 452.055692 99.920074 
L 452.710893 109.523595 
L 453.366093 74.158047 
L 454.021294 79.603616 
L 454.676495 104.838008 
L 455.331695 125.197943 
L 455.986896 138.032112 
L 456.642097 112.228152 
L 457.297297 107.618973 
L 457.952498 67.031587 
L 458.607699 77.627493 
L 459.262899 165.572217 
L 459.9181 80.136218 
L 460.573301 134.332488 
L 461.228501 118.378991 
L 461.883702 133.260991 
L 462.538903 101.060582 
L 463.849304 188.512905 
L 464.504505 116.776686 
L 465.159705 133.866293 
L 465.814906 112.474594 
L 466.470106 104.463447 
L 467.125307 86.536864 
L 467.780508 122.779832 
L 468.435708 108.144735 
L 469.090909 87.856235 
L 469.74611 118.168118 
L 470.40131 182.238055 
L 471.056511 134.19121 
L 471.711712 117.960891 
L 472.366912 42.125799 
L 473.022113 95.062367 
L 473.677314 126.13192 
L 474.332514 139.352965 
L 474.987715 120.643133 
L 475.642916 112.205347 
L 476.298116 153.783789 
L 476.953317 151.069274 
L 477.608518 136.414769 
L 478.263718 71.146802 
L 478.918919 111.196371 
L 479.57412 111.562394 
L 480.22932 140.701128 
L 480.884521 81.161762 
L 481.539722 121.107638 
L 482.194922 117.840403 
L 482.850123 133.935736 
L 483.505324 156.966336 
L 484.160524 169.466382 
L 484.815725 74.762481 
L 485.470925 67.808594 
L 486.126126 161.333756 
L 486.781327 112.667494 
L 487.436527 132.337527 
L 488.091728 92.438158 
L 488.746929 120.11614 
L 489.402129 72.965245 
L 490.05733 139.984426 
L 490.712531 136.368042 
L 491.367731 154.851126 
L 492.022932 154.110468 
L 492.678133 116.355575 
L 493.333333 120.698497 
L 493.988534 150.882599 
L 494.643735 70.184154 
L 495.298935 166.074146 
L 495.954136 117.235177 
L 496.609337 91.749381 
L 497.264537 165.770101 
L 497.919738 65.846871 
L 498.574939 134.694494 
L 499.230139 87.962842 
L 499.88534 154.110468 
L 500.540541 115.223577 
L 501.195741 109.523595 
L 501.850942 128.555888 
L 502.506143 109.103815 
L 503.161343 71.146802 
L 504.471744 124.24257 
L 505.126945 178.754981 
L 505.782146 72.925459 
L 506.437346 95.210663 
L 507.092547 140.551848 
L 507.747748 99.537928 
L 508.402948 87.962842 
L 509.058149 120.57106 
L 509.71335 122.586188 
L 510.36855 142.412353 
L 511.023751 100.24532 
L 511.678952 119.898406 
L 512.334152 143.46443 
L 512.989353 127.585379 
L 513.644554 104.013989 
L 514.299754 50.879051 
L 514.954955 119.070315 
L 515.610156 142.49472 
L 516.265356 81.429401 
L 516.920557 85.666472 
L 517.575758 143.843211 
L 518.230958 44.278697 
L 518.886159 93.765462 
L 519.54136 74.158047 
L 520.19656 123.694501 
L 520.851761 98.358643 
L 521.506962 98.866436 
L 522.162162 152.063783 
L 522.817363 112.081334 
L 523.472563 119.429958 
L 524.127764 140.96648 
L 524.782965 139.923347 
L 525.438165 153.011349 
L 526.093366 103.517031 
L 526.748567 153.783789 
L 527.403767 104.263948 
L 528.058968 119.05765 
L 528.714169 95.464164 
L 529.369369 141.600295 
L 530.02457 124.276804 
L 530.679771 44.278697 
L 531.334971 89.204032 
L 531.990172 77.361608 
L 532.645373 133.31111 
L 533.300573 131.949862 
L 533.955774 87.856235 
L 534.610975 134.096176 
L 535.266175 147.878405 
L 535.921376 167.439323 
L 536.576577 137.145449 
L 537.231777 154.427299 
L 537.886978 137.754932 
L 538.542179 105.15186 
L 539.197379 156.643358 
L 539.85258 113.059136 
L 540.507781 134.888165 
L 541.162981 82.225678 
L 541.818182 121.210655 
L 542.473382 107.715439 
L 543.128583 122.586188 
L 543.783784 195.292277 
L 544.438984 136.808506 
L 545.094185 97.958666 
L 545.749386 154.110468 
L 546.404586 129.872477 
L 547.059787 169.226455 
L 547.714988 91.311838 
L 548.370188 135.895361 
L 549.025389 159.01233 
L 549.68059 115.856311 
L 550.33579 170.259502 
L 550.990991 126.787425 
L 551.646192 104.463447 
L 552.301392 147.253926 
L 552.956593 133.463873 
L 553.611794 105.28012 
L 554.266994 105.638066 
L 554.922195 173.490791 
L 555.577396 127.029912 
L 556.232596 123.553835 
L 556.887797 84.824196 
L 557.542998 141.912723 
L 558.198198 71.146802 
L 558.853399 152.089186 
L 559.5086 131.341357 
L 560.1638 94.439522 
L 560.819001 103.956529 
L 561.474201 151.05645 
L 562.129402 126.62734 
L 562.784603 87.046432 
L 563.439803 116.355575 
L 564.095004 109.784616 
L 564.750205 55.677968 
L 565.405405 157.083429 
L 566.060606 152.490348 
L 566.715807 79.779031 
L 567.371007 98.74948 
L 568.026208 101.888521 
L 568.681409 169.464285 
L 569.336609 126.373752 
L 569.99181 104.838008 
L 570.647011 74.224899 
L 571.302211 153.783789 
L 571.957412 178.754981 
L 572.612613 84.479726 
L 573.267813 111.72824 
L 573.923014 123.132145 
L 574.578215 139.92689 
L 575.233415 136.414769 
L 575.888616 163.871537 
L 576.543817 138.395259 
L 577.199017 70.597042 
L 577.854218 173.753325 
L 578.509419 117.309316 
L 579.164619 90.524317 
L 579.81982 128.863105 
L 580.47502 96.977762 
L 581.130221 95.062367 
L 581.785422 96.342674 
L 582.440622 145.499675 
L 583.095823 149.474576 
L 583.751024 86.615288 
L 584.406224 104.293085 
L 585.061425 154.110468 
L 585.716626 115.228834 
L 586.371826 105.114787 
L 587.027027 91.790548 
L 587.682228 106.337795 
L 588.337428 142.179453 
L 588.992629 52.107695 
L 589.64783 133.813757 
L 590.30303 134.764427 
L 590.958231 155.156808 
L 591.613432 79.585948 
L 592.268632 59.295589 
L 592.923833 90.030462 
L 593.579034 87.962842 
L 594.234234 121.026168 
L 594.889435 130.055607 
L 595.544636 108.894624 
L 596.199836 111.471993 
L 596.855037 120.698497 
L 597.510238 134.096176 
L 598.165438 121.318442 
L 598.820639 82.957494 
L 599.475839 134.391713 
L 600.13104 134.888165 
L 600.786241 196.173597 
L 601.441441 77.835335 
L 602.096642 117.576091 
L 602.751843 122.563643 
L 603.407043 159.01233 
L 604.062244 105.855319 
L 604.717445 142.399045 
L 605.372645 120.571074 
L 606.027846 131.487888 
L 606.683047 90.524317 
L 607.338247 139.553069 
L 607.993448 67.137231 
L 608.648649 127.044306 
L 609.303849 151.236835 
L 609.95905 146.302938 
L 610.614251 112.751691 
L 611.269451 139.043234 
L 611.924652 95.827211 
L 612.579853 125.436095 
L 613.235053 78.69947 
L 613.890254 104.072602 
L 614.545455 120.90792 
L 615.200655 35.96416 
L 615.855856 89.279521 
L 616.511057 95.044501 
L 617.166257 146.07591 
L 617.821458 84.895375 
L 618.476658 162.933223 
L 619.131859 144.566016 
L 619.78706 119.565129 
L 620.44226 127.956702 
L 621.097461 120.698497 
L 621.752662 99.710149 
L 622.407862 55.677968 
L 623.063063 113.837389 
L 623.718264 79.727294 
L 624.373464 97.539402 
L 625.028665 147.512484 
L 625.683866 119.898406 
L 626.339066 121.367234 
L 626.994267 134.096176 
L 627.649468 60.442616 
L 628.304668 133.009833 
L 628.959869 120.571263 
L 629.61507 133.488659 
L 630.27027 95.907817 
L 630.925471 156.443786 
L 631.580672 56.164699 
L 632.235872 94.488991 
L 632.891073 114.750542 
L 633.546274 115.981885 
L 634.201474 150.377309 
L 634.856675 106.337795 
L 635.511876 87.446476 
L 636.822277 126.564926 
L 637.477477 136.192231 
L 638.132678 129.890896 
L 638.787879 110.969788 
L 639.443079 139.923347 
L 640.09828 63.360309 
L 640.753481 143.715916 
L 641.408681 137.073703 
L 642.063882 102.375034 
L 642.719083 136.725381 
L 643.374283 100.185308 
L 644.029484 122.528409 
L 644.684685 103.092798 
L 645.339885 62.65932 
L 645.995086 153.00205 
L 646.650287 111.471993 
L 647.305487 120.571263 
L 647.960688 123.8584 
L 648.615889 136.72732 
L 649.271089 92.421968 
L 649.92629 121.041453 
L 650.581491 107.539648 
L 651.236691 70.184154 
L 651.891892 142.957361 
L 652.547093 112.205347 
L 653.202293 122.649876 
L 653.857494 148.166625 
L 654.512695 104.463447 
L 655.167895 155.650739 
L 655.823096 69.378608 
L 656.478296 84.923971 
L 657.133497 121.367234 
L 657.788698 65.846871 
L 658.443898 146.426596 
L 659.099099 85.355252 
L 659.7543 160.320881 
L 660.4095 178.343443 
L 661.064701 166.074146 
L 661.719902 201.970142 
L 662.375102 127.473098 
L 663.030303 90.555006 
L 663.685504 95.682811 
L 664.340704 135.486809 
L 664.995905 100.47455 
L 666.306306 138.763217 
L 666.961507 140.946004 
L 667.616708 97.906643 
L 668.271908 95.210663 
L 668.927109 142.412353 
L 669.58231 122.779832 
L 670.23751 166.074146 
L 670.892711 111.562394 
L 671.547912 109.784616 
L 672.203112 153.356326 
L 672.858313 165.572217 
L 673.513514 111.145431 
L 674.168714 125.59664 
L 674.823915 120.871131 
L 675.479115 154.485973 
L 676.134316 104.238267 
L 676.789517 107.007742 
L 678.099918 201.970142 
L 678.755119 118.208425 
L 679.410319 79.779031 
L 680.06552 140.476225 
L 680.720721 89.441795 
L 681.375921 121.294248 
L 682.031122 122.788983 
L 682.686323 90.561443 
L 683.341523 138.395259 
L 683.996724 134.102456 
L 684.651925 154.468709 
L 685.307125 59.295589 
L 685.962326 156.024705 
L 686.617527 148.155025 
L 687.272727 134.096176 
L 687.272727 134.096176 
" clip-path="url(#p76996767a2)" style="fill: none; stroke: #1f77b4; stroke-width: 1.5; stroke-linecap: square"/>
   </g>
   <g id="text_1">
    <!-- Random draws from a normally distributed population (μ=100, sdt=3) -->
    <g transform="translate(148.545 -6)scale(0.12 -0.12)">
     <defs>
      <path id="DejaVuSans-52" d="M 2841 2188 
Q 3044 2119 3236 1894 
Q 3428 1669 3622 1275 
L 4263 0 
L 3584 0 
L 2988 1197 
Q 2756 1666 2539 1819 
Q 2322 1972 1947 1972 
L 1259 1972 
L 1259 0 
L 628 0 
L 628 4666 
L 2053 4666 
Q 2853 4666 3247 4331 
Q 3641 3997 3641 3322 
Q 3641 2881 3436 2590 
Q 3231 2300 2841 2188 
z
M 1259 4147 
L 1259 2491 
L 2053 2491 
Q 2509 2491 2742 2702 
Q 2975 2913 2975 3322 
Q 2975 3731 2742 3939 
Q 2509 4147 2053 4147 
L 1259 4147 
z
" transform="scale(0.015625)"/>
      <path id="DejaVuSans-61" d="M 2194 1759 
Q 1497 1759 1228 1600 
Q 959 1441 959 1056 
Q 959 750 1161 570 
Q 1363 391 1709 391 
Q 2188 391 2477 730 
Q 2766 1069 2766 1631 
L 2766 1759 
L 2194 1759 
z
M 3341 1997 
L 3341 0 
L 2766 0 
L 2766 531 
Q 2569 213 2275 61 
Q 1981 -91 1556 -91 
Q 1019 -91 701 211 
Q 384 513 384 1019 
Q 384 1609 779 1909 
Q 1175 2209 1959 2209 
L 2766 2209 
L 2766 2266 
Q 2766 2663 2505 2880 
Q 2244 3097 1772 3097 
Q 1472 3097 1187 3025 
Q 903 2953 641 2809 
L 641 3341 
Q 956 3463 1253 3523 
Q 1550 3584 1831 3584 
Q 2591 3584 2966 3190 
Q 3341 2797 3341 1997 
z
" transform="scale(0.015625)"/>
      <path id="DejaVuSans-6e" d="M 3513 2113 
L 3513 0 
L 2938 0 
L 2938 2094 
Q 2938 2591 2744 2837 
Q 2550 3084 2163 3084 
Q 1697 3084 1428 2787 
Q 1159 2491 1159 1978 
L 1159 0 
L 581 0 
L 581 3500 
L 1159 3500 
L 1159 2956 
Q 1366 3272 1645 3428 
Q 1925 3584 2291 3584 
Q 2894 3584 3203 3211 
Q 3513 2838 3513 2113 
z
" transform="scale(0.015625)"/>
      <path id="DejaVuSans-64" d="M 2906 2969 
L 2906 4863 
L 3481 4863 
L 3481 0 
L 2906 0 
L 2906 525 
Q 2725 213 2448 61 
Q 2172 -91 1784 -91 
Q 1150 -91 751 415 
Q 353 922 353 1747 
Q 353 2572 751 3078 
Q 1150 3584 1784 3584 
Q 2172 3584 2448 3432 
Q 2725 3281 2906 2969 
z
M 947 1747 
Q 947 1113 1208 752 
Q 1469 391 1925 391 
Q 2381 391 2643 752 
Q 2906 1113 2906 1747 
Q 2906 2381 2643 2742 
Q 2381 3103 1925 3103 
Q 1469 3103 1208 2742 
Q 947 2381 947 1747 
z
" transform="scale(0.015625)"/>
      <path id="DejaVuSans-6f" d="M 1959 3097 
Q 1497 3097 1228 2736 
Q 959 2375 959 1747 
Q 959 1119 1226 758 
Q 1494 397 1959 397 
Q 2419 397 2687 759 
Q 2956 1122 2956 1747 
Q 2956 2369 2687 2733 
Q 2419 3097 1959 3097 
z
M 1959 3584 
Q 2709 3584 3137 3096 
Q 3566 2609 3566 1747 
Q 3566 888 3137 398 
Q 2709 -91 1959 -91 
Q 1206 -91 779 398 
Q 353 888 353 1747 
Q 353 2609 779 3096 
Q 1206 3584 1959 3584 
z
" transform="scale(0.015625)"/>
      <path id="DejaVuSans-6d" d="M 3328 2828 
Q 3544 3216 3844 3400 
Q 4144 3584 4550 3584 
Q 5097 3584 5394 3201 
Q 5691 2819 5691 2113 
L 5691 0 
L 5113 0 
L 5113 2094 
Q 5113 2597 4934 2840 
Q 4756 3084 4391 3084 
Q 3944 3084 3684 2787 
Q 3425 2491 3425 1978 
L 3425 0 
L 2847 0 
L 2847 2094 
Q 2847 2600 2669 2842 
Q 2491 3084 2119 3084 
Q 1678 3084 1418 2786 
Q 1159 2488 1159 1978 
L 1159 0 
L 581 0 
L 581 3500 
L 1159 3500 
L 1159 2956 
Q 1356 3278 1631 3431 
Q 1906 3584 2284 3584 
Q 2666 3584 2933 3390 
Q 3200 3197 3328 2828 
z
" transform="scale(0.015625)"/>
      <path id="DejaVuSans-20" transform="scale(0.015625)"/>
      <path id="DejaVuSans-72" d="M 2631 2963 
Q 2534 3019 2420 3045 
Q 2306 3072 2169 3072 
Q 1681 3072 1420 2755 
Q 1159 2438 1159 1844 
L 1159 0 
L 581 0 
L 581 3500 
L 1159 3500 
L 1159 2956 
Q 1341 3275 1631 3429 
Q 1922 3584 2338 3584 
Q 2397 3584 2469 3576 
Q 2541 3569 2628 3553 
L 2631 2963 
z
" transform="scale(0.015625)"/>
      <path id="DejaVuSans-77" d="M 269 3500 
L 844 3500 
L 1563 769 
L 2278 3500 
L 2956 3500 
L 3675 769 
L 4391 3500 
L 4966 3500 
L 4050 0 
L 3372 0 
L 2619 2869 
L 1863 0 
L 1184 0 
L 269 3500 
z
" transform="scale(0.015625)"/>
      <path id="DejaVuSans-73" d="M 2834 3397 
L 2834 2853 
Q 2591 2978 2328 3040 
Q 2066 3103 1784 3103 
Q 1356 3103 1142 2972 
Q 928 2841 928 2578 
Q 928 2378 1081 2264 
Q 1234 2150 1697 2047 
L 1894 2003 
Q 2506 1872 2764 1633 
Q 3022 1394 3022 966 
Q 3022 478 2636 193 
Q 2250 -91 1575 -91 
Q 1294 -91 989 -36 
Q 684 19 347 128 
L 347 722 
Q 666 556 975 473 
Q 1284 391 1588 391 
Q 1994 391 2212 530 
Q 2431 669 2431 922 
Q 2431 1156 2273 1281 
Q 2116 1406 1581 1522 
L 1381 1569 
Q 847 1681 609 1914 
Q 372 2147 372 2553 
Q 372 3047 722 3315 
Q 1072 3584 1716 3584 
Q 2034 3584 2315 3537 
Q 2597 3491 2834 3397 
z
" transform="scale(0.015625)"/>
      <path id="DejaVuSans-66" d="M 2375 4863 
L 2375 4384 
L 1825 4384 
Q 1516 4384 1395 4259 
Q 1275 4134 1275 3809 
L 1275 3500 
L 2222 3500 
L 2222 3053 
L 1275 3053 
L 1275 0 
L 697 0 
L 697 3053 
L 147 3053 
L 147 3500 
L 697 3500 
L 697 3744 
Q 697 4328 969 4595 
Q 1241 4863 1831 4863 
L 2375 4863 
z
" transform="scale(0.015625)"/>
      <path id="DejaVuSans-6c" d="M 603 4863 
L 1178 4863 
L 1178 0 
L 603 0 
L 603 4863 
z
" transform="scale(0.015625)"/>
      <path id="DejaVuSans-79" d="M 2059 -325 
Q 1816 -950 1584 -1140 
Q 1353 -1331 966 -1331 
L 506 -1331 
L 506 -850 
L 844 -850 
Q 1081 -850 1212 -737 
Q 1344 -625 1503 -206 
L 1606 56 
L 191 3500 
L 800 3500 
L 1894 763 
L 2988 3500 
L 3597 3500 
L 2059 -325 
z
" transform="scale(0.015625)"/>
      <path id="DejaVuSans-69" d="M 603 3500 
L 1178 3500 
L 1178 0 
L 603 0 
L 603 3500 
z
M 603 4863 
L 1178 4863 
L 1178 4134 
L 603 4134 
L 603 4863 
z
" transform="scale(0.015625)"/>
      <path id="DejaVuSans-74" d="M 1172 4494 
L 1172 3500 
L 2356 3500 
L 2356 3053 
L 1172 3053 
L 1172 1153 
Q 1172 725 1289 603 
Q 1406 481 1766 481 
L 2356 481 
L 2356 0 
L 1766 0 
Q 1100 0 847 248 
Q 594 497 594 1153 
L 594 3053 
L 172 3053 
L 172 3500 
L 594 3500 
L 594 4494 
L 1172 4494 
z
" transform="scale(0.015625)"/>
      <path id="DejaVuSans-62" d="M 3116 1747 
Q 3116 2381 2855 2742 
Q 2594 3103 2138 3103 
Q 1681 3103 1420 2742 
Q 1159 2381 1159 1747 
Q 1159 1113 1420 752 
Q 1681 391 2138 391 
Q 2594 391 2855 752 
Q 3116 1113 3116 1747 
z
M 1159 2969 
Q 1341 3281 1617 3432 
Q 1894 3584 2278 3584 
Q 2916 3584 3314 3078 
Q 3713 2572 3713 1747 
Q 3713 922 3314 415 
Q 2916 -91 2278 -91 
Q 1894 -91 1617 61 
Q 1341 213 1159 525 
L 1159 0 
L 581 0 
L 581 4863 
L 1159 4863 
L 1159 2969 
z
" transform="scale(0.015625)"/>
      <path id="DejaVuSans-75" d="M 544 1381 
L 544 3500 
L 1119 3500 
L 1119 1403 
Q 1119 906 1312 657 
Q 1506 409 1894 409 
Q 2359 409 2629 706 
Q 2900 1003 2900 1516 
L 2900 3500 
L 3475 3500 
L 3475 0 
L 2900 0 
L 2900 538 
Q 2691 219 2414 64 
Q 2138 -91 1772 -91 
Q 1169 -91 856 284 
Q 544 659 544 1381 
z
M 1991 3584 
L 1991 3584 
z
" transform="scale(0.015625)"/>
      <path id="DejaVuSans-65" d="M 3597 1894 
L 3597 1613 
L 953 1613 
Q 991 1019 1311 708 
Q 1631 397 2203 397 
Q 2534 397 2845 478 
Q 3156 559 3463 722 
L 3463 178 
Q 3153 47 2828 -22 
Q 2503 -91 2169 -91 
Q 1331 -91 842 396 
Q 353 884 353 1716 
Q 353 2575 817 3079 
Q 1281 3584 2069 3584 
Q 2775 3584 3186 3129 
Q 3597 2675 3597 1894 
z
M 3022 2063 
Q 3016 2534 2758 2815 
Q 2500 3097 2075 3097 
Q 1594 3097 1305 2825 
Q 1016 2553 972 2059 
L 3022 2063 
z
" transform="scale(0.015625)"/>
      <path id="DejaVuSans-70" d="M 1159 525 
L 1159 -1331 
L 581 -1331 
L 581 3500 
L 1159 3500 
L 1159 2969 
Q 1341 3281 1617 3432 
Q 1894 3584 2278 3584 
Q 2916 3584 3314 3078 
Q 3713 2572 3713 1747 
Q 3713 922 3314 415 
Q 2916 -91 2278 -91 
Q 1894 -91 1617 61 
Q 1341 213 1159 525 
z
M 3116 1747 
Q 3116 2381 2855 2742 
Q 2594 3103 2138 3103 
Q 1681 3103 1420 2742 
Q 1159 2381 1159 1747 
Q 1159 1113 1420 752 
Q 1681 391 2138 391 
Q 2594 391 2855 752 
Q 3116 1113 3116 1747 
z
" transform="scale(0.015625)"/>
      <path id="DejaVuSans-28" d="M 1984 4856 
Q 1566 4138 1362 3434 
Q 1159 2731 1159 2009 
Q 1159 1288 1364 580 
Q 1569 -128 1984 -844 
L 1484 -844 
Q 1016 -109 783 600 
Q 550 1309 550 2009 
Q 550 2706 781 3412 
Q 1013 4119 1484 4856 
L 1984 4856 
z
" transform="scale(0.015625)"/>
      <path id="DejaVuSans-3bc" d="M 544 -1331 
L 544 3500 
L 1119 3500 
L 1119 1325 
Q 1119 872 1334 640 
Q 1550 409 1972 409 
Q 2434 409 2667 671 
Q 2900 934 2900 1459 
L 2900 3500 
L 3475 3500 
L 3475 806 
Q 3475 619 3529 530 
Q 3584 441 3700 441 
Q 3728 441 3778 458 
Q 3828 475 3916 513 
L 3916 50 
Q 3788 -22 3673 -56 
Q 3559 -91 3450 -91 
Q 3234 -91 3106 31 
Q 2978 153 2931 403 
Q 2775 156 2548 32 
Q 2322 -91 2016 -91 
Q 1697 -91 1473 31 
Q 1250 153 1119 397 
L 1119 -1331 
L 544 -1331 
z
" transform="scale(0.015625)"/>
      <path id="DejaVuSans-3d" d="M 678 2906 
L 4684 2906 
L 4684 2381 
L 678 2381 
L 678 2906 
z
M 678 1631 
L 4684 1631 
L 4684 1100 
L 678 1100 
L 678 1631 
z
" transform="scale(0.015625)"/>
      <path id="DejaVuSans-31" d="M 794 531 
L 1825 531 
L 1825 4091 
L 703 3866 
L 703 4441 
L 1819 4666 
L 2450 4666 
L 2450 531 
L 3481 531 
L 3481 0 
L 794 0 
L 794 531 
z
" transform="scale(0.015625)"/>
      <path id="DejaVuSans-30" d="M 2034 4250 
Q 1547 4250 1301 3770 
Q 1056 3291 1056 2328 
Q 1056 1369 1301 889 
Q 1547 409 2034 409 
Q 2525 409 2770 889 
Q 3016 1369 3016 2328 
Q 3016 3291 2770 3770 
Q 2525 4250 2034 4250 
z
M 2034 4750 
Q 2819 4750 3233 4129 
Q 3647 3509 3647 2328 
Q 3647 1150 3233 529 
Q 2819 -91 2034 -91 
Q 1250 -91 836 529 
Q 422 1150 422 2328 
Q 422 3509 836 4129 
Q 1250 4750 2034 4750 
z
" transform="scale(0.015625)"/>
      <path id="DejaVuSans-2c" d="M 750 794 
L 1409 794 
L 1409 256 
L 897 -744 
L 494 -744 
L 750 256 
L 750 794 
z
" transform="scale(0.015625)"/>
      <path id="DejaVuSans-33" d="M 2597 2516 
Q 3050 2419 3304 2112 
Q 3559 1806 3559 1356 
Q 3559 666 3084 287 
Q 2609 -91 1734 -91 
Q 1441 -91 1130 -33 
Q 819 25 488 141 
L 488 750 
Q 750 597 1062 519 
Q 1375 441 1716 441 
Q 2309 441 2620 675 
Q 2931 909 2931 1356 
Q 2931 1769 2642 2001 
Q 2353 2234 1838 2234 
L 1294 2234 
L 1294 2753 
L 1863 2753 
Q 2328 2753 2575 2939 
Q 2822 3125 2822 3475 
Q 2822 3834 2567 4026 
Q 2313 4219 1838 4219 
Q 1578 4219 1281 4162 
Q 984 4106 628 3988 
L 628 4550 
Q 988 4650 1302 4700 
Q 1616 4750 1894 4750 
Q 2613 4750 3031 4423 
Q 3450 4097 3450 3541 
Q 3450 3153 3228 2886 
Q 3006 2619 2597 2516 
z
" transform="scale(0.015625)"/>
      <path id="DejaVuSans-29" d="M 513 4856 
L 1013 4856 
Q 1481 4119 1714 3412 
Q 1947 2706 1947 2009 
Q 1947 1309 1714 600 
Q 1481 -109 1013 -844 
L 513 -844 
Q 928 -128 1133 580 
Q 1338 1288 1338 2009 
Q 1338 2731 1133 3434 
Q 928 4138 513 4856 
z
" transform="scale(0.015625)"/>
     </defs>
     <use xlink:href="#DejaVuSans-52"/>
     <use xlink:href="#DejaVuSans-61" x="67.232422"/>
     <use xlink:href="#DejaVuSans-6e" x="128.511719"/>
     <use xlink:href="#DejaVuSans-64" x="191.890625"/>
     <use xlink:href="#DejaVuSans-6f" x="255.367188"/>
     <use xlink:href="#DejaVuSans-6d" x="316.548828"/>
     <use xlink:href="#DejaVuSans-20" x="413.960938"/>
     <use xlink:href="#DejaVuSans-64" x="445.748047"/>
     <use xlink:href="#DejaVuSans-72" x="509.224609"/>
     <use xlink:href="#DejaVuSans-61" x="550.337891"/>
     <use xlink:href="#DejaVuSans-77" x="611.617188"/>
     <use xlink:href="#DejaVuSans-73" x="693.404297"/>
     <use xlink:href="#DejaVuSans-20" x="745.503906"/>
     <use xlink:href="#DejaVuSans-66" x="777.291016"/>
     <use xlink:href="#DejaVuSans-72" x="812.496094"/>
     <use xlink:href="#DejaVuSans-6f" x="851.359375"/>
     <use xlink:href="#DejaVuSans-6d" x="912.541016"/>
     <use xlink:href="#DejaVuSans-20" x="1009.953125"/>
     <use xlink:href="#DejaVuSans-61" x="1041.740234"/>
     <use xlink:href="#DejaVuSans-20" x="1103.019531"/>
     <use xlink:href="#DejaVuSans-6e" x="1134.806641"/>
     <use xlink:href="#DejaVuSans-6f" x="1198.185547"/>
     <use xlink:href="#DejaVuSans-72" x="1259.367188"/>
     <use xlink:href="#DejaVuSans-6d" x="1298.730469"/>
     <use xlink:href="#DejaVuSans-61" x="1396.142578"/>
     <use xlink:href="#DejaVuSans-6c" x="1457.421875"/>
     <use xlink:href="#DejaVuSans-6c" x="1485.205078"/>
     <use xlink:href="#DejaVuSans-79" x="1512.988281"/>
     <use xlink:href="#DejaVuSans-20" x="1572.167969"/>
     <use xlink:href="#DejaVuSans-64" x="1603.955078"/>
     <use xlink:href="#DejaVuSans-69" x="1667.431641"/>
     <use xlink:href="#DejaVuSans-73" x="1695.214844"/>
     <use xlink:href="#DejaVuSans-74" x="1747.314453"/>
     <use xlink:href="#DejaVuSans-72" x="1786.523438"/>
     <use xlink:href="#DejaVuSans-69" x="1827.636719"/>
     <use xlink:href="#DejaVuSans-62" x="1855.419922"/>
     <use xlink:href="#DejaVuSans-75" x="1918.896484"/>
     <use xlink:href="#DejaVuSans-74" x="1982.275391"/>
     <use xlink:href="#DejaVuSans-65" x="2021.484375"/>
     <use xlink:href="#DejaVuSans-64" x="2083.007812"/>
     <use xlink:href="#DejaVuSans-20" x="2146.484375"/>
     <use xlink:href="#DejaVuSans-70" x="2178.271484"/>
     <use xlink:href="#DejaVuSans-6f" x="2241.748047"/>
     <use xlink:href="#DejaVuSans-70" x="2302.929688"/>
     <use xlink:href="#DejaVuSans-75" x="2366.40625"/>
     <use xlink:href="#DejaVuSans-6c" x="2429.785156"/>
     <use xlink:href="#DejaVuSans-61" x="2457.568359"/>
     <use xlink:href="#DejaVuSans-74" x="2518.847656"/>
     <use xlink:href="#DejaVuSans-69" x="2558.056641"/>
     <use xlink:href="#DejaVuSans-6f" x="2585.839844"/>
     <use xlink:href="#DejaVuSans-6e" x="2647.021484"/>
     <use xlink:href="#DejaVuSans-20" x="2710.400391"/>
     <use xlink:href="#DejaVuSans-28" x="2742.1875"/>
     <use xlink:href="#DejaVuSans-3bc" x="2781.201172"/>
     <use xlink:href="#DejaVuSans-3d" x="2844.824219"/>
     <use xlink:href="#DejaVuSans-31" x="2928.613281"/>
     <use xlink:href="#DejaVuSans-30" x="2992.236328"/>
     <use xlink:href="#DejaVuSans-30" x="3055.859375"/>
     <use xlink:href="#DejaVuSans-2c" x="3119.482422"/>
     <use xlink:href="#DejaVuSans-20" x="3151.269531"/>
     <use xlink:href="#DejaVuSans-73" x="3183.056641"/>
     <use xlink:href="#DejaVuSans-64" x="3235.15625"/>
     <use xlink:href="#DejaVuSans-74" x="3298.632812"/>
     <use xlink:href="#DejaVuSans-3d" x="3337.841797"/>
     <use xlink:href="#DejaVuSans-33" x="3421.630859"/>
     <use xlink:href="#DejaVuSans-29" x="3485.253906"/>
    </g>
   </g>
  </g>
 </g>
 <defs>
  <clipPath id="p76996767a2">
   <rect x="0" y="0" width="720" height="216"/>
  </clipPath>
 </defs>
</svg>
